<mxfile host="app.diagrams.net" modified="2021-04-29T14:38:42.459Z" agent="5.0 (Windows NT 10.0; Win64; x64) AppleWebKit/537.36 (KHTML, like Gecko) Chrome/90.0.4430.85 Safari/537.36 Edg/90.0.818.49" etag="GN9Uag2skELM-3TimIwN" version="14.6.6" type="github" pages="2">
  <diagram id="yvdoU6mcAUJrOM6jH-qH" name="Lesson_2_1">
    <mxGraphModel dx="2062" dy="794" grid="1" gridSize="10" guides="1" tooltips="1" connect="1" arrows="1" fold="1" page="1" pageScale="1" pageWidth="827" pageHeight="1169" math="0" shadow="0">
      <root>
        <mxCell id="0" />
        <mxCell id="1" parent="0" />
        <mxCell id="S1Y_xkd8dQSvKk8F5vj4-3" value="" style="edgeStyle=orthogonalEdgeStyle;rounded=0;orthogonalLoop=1;jettySize=auto;html=1;" edge="1" parent="1" source="S1Y_xkd8dQSvKk8F5vj4-1" target="S1Y_xkd8dQSvKk8F5vj4-2">
          <mxGeometry relative="1" as="geometry" />
        </mxCell>
        <mxCell id="S1Y_xkd8dQSvKk8F5vj4-1" value="Начало" style="ellipse;whiteSpace=wrap;html=1;" vertex="1" parent="1">
          <mxGeometry x="114" y="40" width="120" height="40" as="geometry" />
        </mxCell>
        <mxCell id="S1Y_xkd8dQSvKk8F5vj4-10" value="" style="edgeStyle=orthogonalEdgeStyle;rounded=0;orthogonalLoop=1;jettySize=auto;html=1;" edge="1" parent="1" source="S1Y_xkd8dQSvKk8F5vj4-2" target="S1Y_xkd8dQSvKk8F5vj4-9">
          <mxGeometry relative="1" as="geometry" />
        </mxCell>
        <mxCell id="S1Y_xkd8dQSvKk8F5vj4-2" value="Ввод x, n, z" style="shape=parallelogram;perimeter=parallelogramPerimeter;whiteSpace=wrap;html=1;fixedSize=1;" vertex="1" parent="1">
          <mxGeometry x="114" y="110" width="120" height="60" as="geometry" />
        </mxCell>
        <mxCell id="S1Y_xkd8dQSvKk8F5vj4-7" style="edgeStyle=orthogonalEdgeStyle;rounded=0;orthogonalLoop=1;jettySize=auto;html=1;" edge="1" parent="1" source="S1Y_xkd8dQSvKk8F5vj4-4" target="S1Y_xkd8dQSvKk8F5vj4-22">
          <mxGeometry relative="1" as="geometry">
            <mxPoint x="396.96000000000004" y="358.01999999999987" as="targetPoint" />
            <Array as="points">
              <mxPoint x="397" y="325" />
            </Array>
          </mxGeometry>
        </mxCell>
        <mxCell id="S1Y_xkd8dQSvKk8F5vj4-8" value="Нет" style="edgeLabel;html=1;align=center;verticalAlign=middle;resizable=0;points=[];" vertex="1" connectable="0" parent="S1Y_xkd8dQSvKk8F5vj4-7">
          <mxGeometry x="-0.1621" y="2" relative="1" as="geometry">
            <mxPoint x="-16" y="-6" as="offset" />
          </mxGeometry>
        </mxCell>
        <mxCell id="S1Y_xkd8dQSvKk8F5vj4-18" style="edgeStyle=orthogonalEdgeStyle;rounded=0;orthogonalLoop=1;jettySize=auto;html=1;entryX=0.5;entryY=0;entryDx=0;entryDy=0;" edge="1" parent="1" source="S1Y_xkd8dQSvKk8F5vj4-4">
          <mxGeometry relative="1" as="geometry">
            <mxPoint x="120.00000000000023" y="360" as="targetPoint" />
            <Array as="points">
              <mxPoint x="120" y="325" />
            </Array>
          </mxGeometry>
        </mxCell>
        <mxCell id="S1Y_xkd8dQSvKk8F5vj4-4" value="n == &#39;+&#39;" style="rhombus;whiteSpace=wrap;html=1;" vertex="1" parent="1">
          <mxGeometry x="226" y="290" width="104" height="70" as="geometry" />
        </mxCell>
        <mxCell id="S1Y_xkd8dQSvKk8F5vj4-11" style="edgeStyle=orthogonalEdgeStyle;rounded=0;orthogonalLoop=1;jettySize=auto;html=1;entryX=0.5;entryY=0;entryDx=0;entryDy=0;" edge="1" parent="1" source="S1Y_xkd8dQSvKk8F5vj4-9" target="S1Y_xkd8dQSvKk8F5vj4-4">
          <mxGeometry relative="1" as="geometry">
            <Array as="points">
              <mxPoint x="278" y="240" />
            </Array>
          </mxGeometry>
        </mxCell>
        <mxCell id="S1Y_xkd8dQSvKk8F5vj4-14" style="edgeStyle=orthogonalEdgeStyle;rounded=0;orthogonalLoop=1;jettySize=auto;html=1;entryX=0.5;entryY=0;entryDx=0;entryDy=0;" edge="1" parent="1" source="S1Y_xkd8dQSvKk8F5vj4-9" target="S1Y_xkd8dQSvKk8F5vj4-13">
          <mxGeometry relative="1" as="geometry">
            <Array as="points">
              <mxPoint x="50" y="240" />
              <mxPoint x="50" y="770" />
              <mxPoint x="180" y="770" />
            </Array>
          </mxGeometry>
        </mxCell>
        <mxCell id="S1Y_xkd8dQSvKk8F5vj4-15" value="Да" style="edgeLabel;html=1;align=center;verticalAlign=middle;resizable=0;points=[];" vertex="1" connectable="0" parent="S1Y_xkd8dQSvKk8F5vj4-14">
          <mxGeometry x="-0.9131" y="-1" relative="1" as="geometry">
            <mxPoint x="10" y="-19" as="offset" />
          </mxGeometry>
        </mxCell>
        <mxCell id="S1Y_xkd8dQSvKk8F5vj4-9" value="n == &#39;0&#39;" style="rhombus;whiteSpace=wrap;html=1;" vertex="1" parent="1">
          <mxGeometry x="94" y="200" width="160" height="80" as="geometry" />
        </mxCell>
        <mxCell id="S1Y_xkd8dQSvKk8F5vj4-12" value="Нет" style="text;html=1;align=center;verticalAlign=middle;resizable=0;points=[];autosize=1;strokeColor=none;" vertex="1" parent="1">
          <mxGeometry x="254" y="210" width="40" height="20" as="geometry" />
        </mxCell>
        <mxCell id="S1Y_xkd8dQSvKk8F5vj4-13" value="Конец" style="ellipse;whiteSpace=wrap;html=1;" vertex="1" parent="1">
          <mxGeometry x="120" y="810" width="120" height="40" as="geometry" />
        </mxCell>
        <mxCell id="S1Y_xkd8dQSvKk8F5vj4-19" value="Да" style="text;html=1;align=center;verticalAlign=middle;resizable=0;points=[];autosize=1;strokeColor=none;" vertex="1" parent="1">
          <mxGeometry x="180" y="307" width="30" height="20" as="geometry" />
        </mxCell>
        <mxCell id="S1Y_xkd8dQSvKk8F5vj4-30" style="edgeStyle=orthogonalEdgeStyle;rounded=0;orthogonalLoop=1;jettySize=auto;html=1;entryX=0.5;entryY=0;entryDx=0;entryDy=0;" edge="1" parent="1" source="S1Y_xkd8dQSvKk8F5vj4-22" target="S1Y_xkd8dQSvKk8F5vj4-26">
          <mxGeometry relative="1" as="geometry">
            <Array as="points">
              <mxPoint x="494" y="390" />
              <mxPoint x="494" y="420" />
            </Array>
          </mxGeometry>
        </mxCell>
        <mxCell id="S1Y_xkd8dQSvKk8F5vj4-22" value="n == &#39;-&#39;" style="rhombus;whiteSpace=wrap;html=1;" vertex="1" parent="1">
          <mxGeometry x="342" y="355" width="111" height="70" as="geometry" />
        </mxCell>
        <mxCell id="S1Y_xkd8dQSvKk8F5vj4-23" style="edgeStyle=orthogonalEdgeStyle;rounded=0;orthogonalLoop=1;jettySize=auto;html=1;exitX=0;exitY=0.5;exitDx=0;exitDy=0;entryX=0.5;entryY=0;entryDx=0;entryDy=0;" edge="1" parent="1" source="S1Y_xkd8dQSvKk8F5vj4-22">
          <mxGeometry relative="1" as="geometry">
            <mxPoint x="264.0000000000002" y="420" as="targetPoint" />
            <mxPoint x="340" y="398" as="sourcePoint" />
            <Array as="points">
              <mxPoint x="264" y="390" />
            </Array>
          </mxGeometry>
        </mxCell>
        <mxCell id="S1Y_xkd8dQSvKk8F5vj4-24" value="Да" style="text;html=1;align=center;verticalAlign=middle;resizable=0;points=[];autosize=1;strokeColor=none;" vertex="1" parent="1">
          <mxGeometry x="294" y="370" width="30" height="20" as="geometry" />
        </mxCell>
        <mxCell id="S1Y_xkd8dQSvKk8F5vj4-43" style="edgeStyle=orthogonalEdgeStyle;rounded=0;orthogonalLoop=1;jettySize=auto;html=1;entryX=0.5;entryY=0;entryDx=0;entryDy=0;" edge="1" parent="1" source="S1Y_xkd8dQSvKk8F5vj4-26" target="S1Y_xkd8dQSvKk8F5vj4-36">
          <mxGeometry relative="1" as="geometry">
            <mxPoint x="590" y="510" as="targetPoint" />
            <Array as="points">
              <mxPoint x="594" y="475" />
              <mxPoint x="594" y="522" />
            </Array>
          </mxGeometry>
        </mxCell>
        <mxCell id="S1Y_xkd8dQSvKk8F5vj4-26" value="n == &#39;*&#39;" style="rhombus;whiteSpace=wrap;html=1;" vertex="1" parent="1">
          <mxGeometry x="438" y="440" width="111" height="70" as="geometry" />
        </mxCell>
        <mxCell id="S1Y_xkd8dQSvKk8F5vj4-27" style="edgeStyle=orthogonalEdgeStyle;rounded=0;orthogonalLoop=1;jettySize=auto;html=1;exitX=0;exitY=0.5;exitDx=0;exitDy=0;" edge="1" source="S1Y_xkd8dQSvKk8F5vj4-26" parent="1">
          <mxGeometry relative="1" as="geometry">
            <mxPoint x="370" y="505" as="targetPoint" />
            <mxPoint x="436" y="483" as="sourcePoint" />
            <Array as="points">
              <mxPoint x="370" y="475" />
              <mxPoint x="370" y="505" />
            </Array>
          </mxGeometry>
        </mxCell>
        <mxCell id="S1Y_xkd8dQSvKk8F5vj4-28" value="Да" style="text;html=1;align=center;verticalAlign=middle;resizable=0;points=[];autosize=1;strokeColor=none;" vertex="1" parent="1">
          <mxGeometry x="390" y="455" width="30" height="20" as="geometry" />
        </mxCell>
        <mxCell id="S1Y_xkd8dQSvKk8F5vj4-33" style="edgeStyle=orthogonalEdgeStyle;rounded=0;orthogonalLoop=1;jettySize=auto;html=1;exitX=0;exitY=0.5;exitDx=0;exitDy=0;entryX=0.5;entryY=0;entryDx=0;entryDy=0;" edge="1" source="S1Y_xkd8dQSvKk8F5vj4-36" parent="1">
          <mxGeometry relative="1" as="geometry">
            <mxPoint x="460" y="587" as="targetPoint" />
            <mxPoint x="536" y="565" as="sourcePoint" />
            <Array as="points">
              <mxPoint x="460" y="557" />
            </Array>
          </mxGeometry>
        </mxCell>
        <mxCell id="S1Y_xkd8dQSvKk8F5vj4-34" value="Да" style="text;html=1;align=center;verticalAlign=middle;resizable=0;points=[];autosize=1;strokeColor=none;" vertex="1" parent="1">
          <mxGeometry x="490" y="537" width="30" height="20" as="geometry" />
        </mxCell>
        <mxCell id="S1Y_xkd8dQSvKk8F5vj4-54" style="edgeStyle=orthogonalEdgeStyle;rounded=0;orthogonalLoop=1;jettySize=auto;html=1;entryX=0.583;entryY=-0.022;entryDx=0;entryDy=0;entryPerimeter=0;exitX=1;exitY=0.5;exitDx=0;exitDy=0;" edge="1" parent="1" source="S1Y_xkd8dQSvKk8F5vj4-36" target="S1Y_xkd8dQSvKk8F5vj4-53">
          <mxGeometry relative="1" as="geometry">
            <Array as="points">
              <mxPoint x="719" y="557" />
            </Array>
          </mxGeometry>
        </mxCell>
        <mxCell id="S1Y_xkd8dQSvKk8F5vj4-36" value="n == &#39;/&#39;" style="rhombus;whiteSpace=wrap;html=1;" vertex="1" parent="1">
          <mxGeometry x="538" y="522" width="111" height="70" as="geometry" />
        </mxCell>
        <mxCell id="S1Y_xkd8dQSvKk8F5vj4-56" style="edgeStyle=orthogonalEdgeStyle;rounded=0;orthogonalLoop=1;jettySize=auto;html=1;entryX=0.5;entryY=0;entryDx=0;entryDy=0;" edge="1" parent="1" source="S1Y_xkd8dQSvKk8F5vj4-37" target="S1Y_xkd8dQSvKk8F5vj4-13">
          <mxGeometry relative="1" as="geometry">
            <Array as="points">
              <mxPoint x="120" y="730" />
              <mxPoint x="180" y="730" />
            </Array>
          </mxGeometry>
        </mxCell>
        <mxCell id="S1Y_xkd8dQSvKk8F5vj4-37" value="&lt;span&gt;Вывод&lt;br&gt;Ответ:&amp;nbsp; &#39;x&#39; + &#39;z&#39;&lt;/span&gt;" style="shape=parallelogram;perimeter=parallelogramPerimeter;whiteSpace=wrap;html=1;fixedSize=1;" vertex="1" parent="1">
          <mxGeometry x="60" y="360" width="120" height="60" as="geometry" />
        </mxCell>
        <mxCell id="S1Y_xkd8dQSvKk8F5vj4-57" style="edgeStyle=orthogonalEdgeStyle;rounded=0;orthogonalLoop=1;jettySize=auto;html=1;" edge="1" parent="1" source="S1Y_xkd8dQSvKk8F5vj4-38">
          <mxGeometry relative="1" as="geometry">
            <mxPoint x="180" y="810" as="targetPoint" />
            <Array as="points">
              <mxPoint x="264" y="530" />
              <mxPoint x="180" y="530" />
            </Array>
          </mxGeometry>
        </mxCell>
        <mxCell id="S1Y_xkd8dQSvKk8F5vj4-38" value="&lt;span&gt;Вывод&lt;br&gt;Ответ:&amp;nbsp; &#39;x&#39; - &#39;z&#39;&lt;/span&gt;" style="shape=parallelogram;perimeter=parallelogramPerimeter;whiteSpace=wrap;html=1;fixedSize=1;" vertex="1" parent="1">
          <mxGeometry x="204" y="420" width="120" height="60" as="geometry" />
        </mxCell>
        <mxCell id="S1Y_xkd8dQSvKk8F5vj4-58" style="edgeStyle=orthogonalEdgeStyle;rounded=0;orthogonalLoop=1;jettySize=auto;html=1;" edge="1" parent="1" source="S1Y_xkd8dQSvKk8F5vj4-41">
          <mxGeometry relative="1" as="geometry">
            <mxPoint x="180" y="810" as="targetPoint" />
            <Array as="points">
              <mxPoint x="370" y="600" />
              <mxPoint x="180" y="600" />
            </Array>
          </mxGeometry>
        </mxCell>
        <mxCell id="S1Y_xkd8dQSvKk8F5vj4-41" value="&lt;span&gt;Вывод&lt;br&gt;Ответ:&amp;nbsp; &#39;x&#39; * &#39;z&#39;&lt;/span&gt;" style="shape=parallelogram;perimeter=parallelogramPerimeter;whiteSpace=wrap;html=1;fixedSize=1;" vertex="1" parent="1">
          <mxGeometry x="310" y="506" width="120" height="60" as="geometry" />
        </mxCell>
        <mxCell id="S1Y_xkd8dQSvKk8F5vj4-60" style="edgeStyle=orthogonalEdgeStyle;rounded=0;orthogonalLoop=1;jettySize=auto;html=1;" edge="1" parent="1" source="S1Y_xkd8dQSvKk8F5vj4-42">
          <mxGeometry relative="1" as="geometry">
            <mxPoint x="180" y="810" as="targetPoint" />
            <Array as="points">
              <mxPoint x="550" y="770" />
              <mxPoint x="180" y="770" />
            </Array>
          </mxGeometry>
        </mxCell>
        <mxCell id="S1Y_xkd8dQSvKk8F5vj4-42" value="&lt;span&gt;Вывод&lt;br&gt;Ответ:&amp;nbsp; &#39;x&#39; / &#39;z&#39;&lt;/span&gt;" style="shape=parallelogram;perimeter=parallelogramPerimeter;whiteSpace=wrap;html=1;fixedSize=1;" vertex="1" parent="1">
          <mxGeometry x="490" y="655" width="120" height="60" as="geometry" />
        </mxCell>
        <mxCell id="S1Y_xkd8dQSvKk8F5vj4-47" style="edgeStyle=orthogonalEdgeStyle;rounded=0;orthogonalLoop=1;jettySize=auto;html=1;" edge="1" parent="1" source="S1Y_xkd8dQSvKk8F5vj4-45" target="S1Y_xkd8dQSvKk8F5vj4-46">
          <mxGeometry relative="1" as="geometry">
            <mxPoint x="390" y="640" as="targetPoint" />
            <Array as="points">
              <mxPoint x="370" y="620" />
            </Array>
          </mxGeometry>
        </mxCell>
        <mxCell id="S1Y_xkd8dQSvKk8F5vj4-50" style="edgeStyle=orthogonalEdgeStyle;rounded=0;orthogonalLoop=1;jettySize=auto;html=1;entryX=0.5;entryY=0;entryDx=0;entryDy=0;" edge="1" parent="1" source="S1Y_xkd8dQSvKk8F5vj4-45" target="S1Y_xkd8dQSvKk8F5vj4-42">
          <mxGeometry relative="1" as="geometry">
            <Array as="points">
              <mxPoint x="550" y="620" />
            </Array>
          </mxGeometry>
        </mxCell>
        <mxCell id="S1Y_xkd8dQSvKk8F5vj4-45" value="z == &#39;0&#39;" style="rhombus;whiteSpace=wrap;html=1;" vertex="1" parent="1">
          <mxGeometry x="404.5" y="585" width="111" height="70" as="geometry" />
        </mxCell>
        <mxCell id="S1Y_xkd8dQSvKk8F5vj4-59" style="edgeStyle=orthogonalEdgeStyle;rounded=0;orthogonalLoop=1;jettySize=auto;html=1;entryX=0.5;entryY=0;entryDx=0;entryDy=0;" edge="1" parent="1" source="S1Y_xkd8dQSvKk8F5vj4-46" target="S1Y_xkd8dQSvKk8F5vj4-13">
          <mxGeometry relative="1" as="geometry">
            <Array as="points">
              <mxPoint x="370" y="730" />
              <mxPoint x="180" y="730" />
            </Array>
          </mxGeometry>
        </mxCell>
        <mxCell id="S1Y_xkd8dQSvKk8F5vj4-46" value="&lt;span&gt;Вывод&lt;br&gt;Ответ:&amp;nbsp; &#39;На 0 делить нельзя!&#39;&lt;/span&gt;" style="shape=parallelogram;perimeter=parallelogramPerimeter;whiteSpace=wrap;html=1;fixedSize=1;" vertex="1" parent="1">
          <mxGeometry x="290" y="655" width="160" height="60" as="geometry" />
        </mxCell>
        <mxCell id="S1Y_xkd8dQSvKk8F5vj4-48" value="Нет" style="text;html=1;align=center;verticalAlign=middle;resizable=0;points=[];autosize=1;strokeColor=none;" vertex="1" parent="1">
          <mxGeometry x="450" y="370" width="40" height="20" as="geometry" />
        </mxCell>
        <mxCell id="S1Y_xkd8dQSvKk8F5vj4-49" value="Нет" style="text;html=1;align=center;verticalAlign=middle;resizable=0;points=[];autosize=1;strokeColor=none;" vertex="1" parent="1">
          <mxGeometry x="550" y="455" width="40" height="20" as="geometry" />
        </mxCell>
        <mxCell id="S1Y_xkd8dQSvKk8F5vj4-51" value="Нет" style="text;html=1;align=center;verticalAlign=middle;resizable=0;points=[];autosize=1;strokeColor=none;" vertex="1" parent="1">
          <mxGeometry x="515.5" y="600" width="40" height="20" as="geometry" />
        </mxCell>
        <mxCell id="S1Y_xkd8dQSvKk8F5vj4-52" value="Да" style="text;html=1;align=center;verticalAlign=middle;resizable=0;points=[];autosize=1;strokeColor=none;" vertex="1" parent="1">
          <mxGeometry x="374.5" y="600" width="30" height="20" as="geometry" />
        </mxCell>
        <mxCell id="S1Y_xkd8dQSvKk8F5vj4-61" style="edgeStyle=orthogonalEdgeStyle;rounded=0;orthogonalLoop=1;jettySize=auto;html=1;" edge="1" parent="1" source="S1Y_xkd8dQSvKk8F5vj4-53" target="S1Y_xkd8dQSvKk8F5vj4-13">
          <mxGeometry relative="1" as="geometry">
            <Array as="points">
              <mxPoint x="709" y="770" />
              <mxPoint x="180" y="770" />
            </Array>
          </mxGeometry>
        </mxCell>
        <mxCell id="S1Y_xkd8dQSvKk8F5vj4-53" value="Вывод&lt;br&gt;Ошибка знака" style="shape=parallelogram;perimeter=parallelogramPerimeter;whiteSpace=wrap;html=1;fixedSize=1;" vertex="1" parent="1">
          <mxGeometry x="649" y="580" width="120" height="60" as="geometry" />
        </mxCell>
        <mxCell id="S1Y_xkd8dQSvKk8F5vj4-55" value="Нет" style="text;html=1;align=center;verticalAlign=middle;resizable=0;points=[];autosize=1;strokeColor=none;" vertex="1" parent="1">
          <mxGeometry x="660" y="537" width="40" height="20" as="geometry" />
        </mxCell>
      </root>
    </mxGraphModel>
  </diagram>
  <diagram id="86SjSSydqkA74EILzOwc" name="Страница 2">
    <mxGraphModel dx="2062" dy="794" grid="1" gridSize="10" guides="1" tooltips="1" connect="1" arrows="1" fold="1" page="1" pageScale="1" pageWidth="827" pageHeight="1169" math="0" shadow="0">
      <root>
        <mxCell id="w6FFo3E0nhybmVskQiMI-0" />
        <mxCell id="w6FFo3E0nhybmVskQiMI-1" parent="w6FFo3E0nhybmVskQiMI-0" />
      </root>
    </mxGraphModel>
  </diagram>
</mxfile>
